PathFileType	4	(x/y/z)	S08_M20_T04
DataRate	CameraRate	NumFrames	NumMarkers	Units	OrigDataRate	OrigDataStartFrame	OrigNumFrames
240	240	10	51	mm	240	348	463
Frame#	Time	Sternum			R.Acromium			L.Acromium			Top.Head			R.ASIS			L.ASIS			R.PSIS			L.PSIS			R.Great.Tro			L.Great.Tro			R.Iliac.Crest			L.Iliac.Crest			V.Sacral			R.Thigh.Upper.Post			R.Thigh.Lower.Ant			R.Thigh.Lower.Post			R.Thigh.Upper.Ant			R.Knee.Lat			R.Knee.Med			R.Shank.Upper.Post			R.Shank.Lower.Ant			R.Shank.Lower.Post			R.Shank.Upper.Ant			R.Ankle.Lat			R.Ankle.Med			R.Heel.Upper			R.Heel.Med			R.Heel.Lat			R.Toe.Lat			R.Toe.Med			R.Toe.Tip			L.Thigh.Upper.Post			L.Thigh.Lower.Ant			L.Thigh.Lower.Post			L.Thigh.Upper.Ant			L.Knee.Lat			L.Knee.Med			L.Shank.Upper.Post			L.Shank.Lower.Ant			L.Shank.Lower.Post			L.Shank.Upper.Ant			L.Ankle.Lat			L.Ankle.Med			L.Heel.Upper			L.Heel.Med			L.Heel.Lat			L.Toe.Lat			L.Toe.Med			L.Toe.Tip			Cervical.Spine			Back			
		X1	Y1	Z1	X2	Y2	Z2	X3	Y3	Z3	X4	Y4	Z4	X5	Y5	Z5	X6	Y6	Z6	X7	Y7	Z7	X8	Y8	Z8	X9	Y9	Z9	X10	Y10	Z10	X11	Y11	Z11	X12	Y12	Z12	X13	Y13	Z13	X14	Y14	Z14	X15	Y15	Z15	X16	Y16	Z16	X17	Y17	Z17	X18	Y18	Z18	X19	Y19	Z19	X20	Y20	Z20	X21	Y21	Z21	X22	Y22	Z22	X23	Y23	Z23	X24	Y24	Z24	X25	Y25	Z25	X26	Y26	Z26	X27	Y27	Z27	X28	Y28	Z28	X29	Y29	Z29	X30	Y30	Z30	X31	Y31	Z31	X32	Y32	Z32	X33	Y33	Z33	X34	Y34	Z34	X35	Y35	Z35	X36	Y36	Z36	X37	Y37	Z37	X38	Y38	Z38	X39	Y39	Z39	X40	Y40	Z40	X41	Y41	Z41	X42	Y42	Z42	X43	Y43	Z43	X44	Y44	Z44	X45	Y45	Z45	X46	Y46	Z46	X47	Y47	Z47	X48	Y48	Z48	X49	Y49	Z49	X50	Y50	Z50	X51	Y51	Z51	

348	1.4458	450.08	1217.2	329.29	337.73	1450.9	504.76	297.39	1471.4	169.66	325.78	1770.9	348.73	431.58	993.09	444.58	440.18	1009.3	213.22	234.39	1025.9	365.62	239.91	1036.2	272.16	352.59	877.71	507.32	360.21	906.87	138.89	336.59	1060.6	490.84	342.6	1090.8	181.88	219.45	990.56	314.39	331.75	677.31	498.38	414.36	578.14	484.04	343.24	587.79	485.21	411.4	673.18	498.25	374.48	485.5	481.72	369.99	482.96	349.26	203.88	416.31	488.15	188.85	328.88	470.43	140.17	372.08	483.85	252.4	374.03	477.75	5.8012	276.04	455.99	35.424	257.13	376.06	-37.778	305.3	405.15	-56.077	287.69	374.65	-62.074	290.49	437.09	NaN	NaN	NaN	16.115	118.25	357.76	54.561	63.972	402.53	397.05	690.67	163.39	501.36	627.83	195.61	434.94	611.07	186.96	468.6	706.07	166.83	475.49	519.6	211.12	466.38	523.6	335.83	424.58	337.22	209.7	491.06	252.31	240.04	421.17	264.96	226.71	487.94	326.92	222.13	438.81	96.895	247.01	461.57	102.72	335.23	387.69	73.908	300.27	402.57	39.944	331.07	394.82	45.89	267.21	570.6	42.605	232.58	590.15	45.227	347	652.42	67.98	298.57	249.91	1504.5	336.85	214.61	1217.9	351.7
349	1.45	454.86	1218.3	329.03	342.51	1451.9	504.64	302.27	1472.6	169.59	331.12	1772	348.72	436.77	994.47	444.07	444.88	1010.4	212.71	239.37	1026.9	365.55	244.76	1037.2	272.1	358.44	878.97	507.12	364.67	907.71	138.7	341.78	1061.8	490.58	347.19	1091.8	181.59	224.37	991.56	314.37	340.27	678.25	498.27	423.97	580.06	484.12	352.75	588.81	485.1	419.89	675.06	498.31	385.28	487.01	481.8	380.5	484.39	349.24	215.24	417.06	488.39	200.54	329.57	470.58	151.71	372.55	484.1	263.93	375	477.93	17.528	276.18	456.1	47.325	257.2	376.4	-26.791	304.47	405.2	-44.761	286.33	374.79	-50.792	289.49	437.19	NaN	NaN	NaN	30.01	117.95	359.1	69.255	64.653	404.24	400.08	691.33	163.32	503.87	627.7	195.74	437.33	611.44	186.9	471.8	706.25	166.8	477.09	519.61	211.19	467.69	523.62	335.83	425.44	337.37	209.92	491.64	252.23	240.23	421.79	265.12	226.94	488.76	326.86	222.29	439	97.035	247.21	461.66	102.69	335.49	387.73	73.965	300.38	402.6	39.942	331.12	394.86	46.004	267.26	570.66	42.571	232.6	590.28	44.822	347.06	652.59	67.501	298.65	254.76	1505.6	336.74	219.48	1219.1	351.43
350	1.4542	459.62	1219.4	328.76	347.29	1453	504.53	307.13	1473.8	169.53	336.45	1773.1	348.72	441.92	995.86	443.57	449.55	1011.4	212.22	244.33	1027.9	365.47	249.6	1038.2	272.04	364.26	880.24	506.93	369.11	908.53	138.52	346.94	1063	490.33	351.8	1092.8	181.3	229.26	992.55	314.35	348.77	679.24	498.19	433.56	582.04	484.17	362.23	589.88	485.01	428.35	676.99	498.36	396.05	488.57	481.86	390.95	485.89	349.2	226.58	417.74	488.6	212.3	330.2	470.71	163.28	372.9	484.34	275.47	375.96	478.09	29.367	276.08	456.18	59.355	257.07	376.73	-15.698	303.36	405.24	-33.324	284.68	374.94	-39.391	288.2	437.28	NaN	NaN	NaN	44.147	117.46	360.45	84.231	65.205	405.96	403.09	691.99	163.24	506.34	627.56	195.85	439.69	611.81	186.84	474.97	706.43	166.77	478.65	519.62	211.25	468.94	523.63	335.82	426.27	337.51	210.12	492.21	252.16	240.41	422.39	265.27	227.14	489.56	326.8	222.45	439.18	97.171	247.41	461.75	102.67	335.75	387.78	74.02	300.49	402.62	39.941	331.17	394.9	46.117	267.31	570.73	42.536	232.61	590.39	44.429	347.11	652.75	67.034	298.72	259.6	1506.6	336.63	224.33	1220.2	351.18
351	1.4583	464.35	1220.6	328.48	352.06	1454	504.41	311.97	1475	169.47	341.77	1774.2	348.73	447.04	997.23	443.09	454.21	1012.5	211.74	249.28	1029	365.4	254.42	1039.1	271.99	370.05	881.52	506.77	373.52	909.32	138.36	352.07	1064.2	490.09	356.4	1093.8	181.01	234.15	993.53	314.33	357.27	680.27	498.13	443.11	584.08	484.2	371.69	591.01	484.94	436.79	678.96	498.4	406.79	490.2	481.87	401.31	487.46	349.15	237.91	418.37	488.79	224.12	330.76	470.81	174.88	373.14	484.54	287.03	376.91	478.23	41.318	275.75	456.25	71.507	256.73	377.04	-4.4997	301.97	405.26	-21.766	282.75	375.09	-27.867	286.63	437.37	NaN	NaN	NaN	58.514	116.8	361.81	99.476	65.636	407.67	406.08	692.65	163.16	508.78	627.42	195.97	442.02	612.17	186.76	478.1	706.59	166.75	480.17	519.64	211.31	470.15	523.65	335.79	427.09	337.65	210.3	492.76	252.09	240.58	422.98	265.42	227.34	490.34	326.74	222.59	439.36	97.303	247.6	461.84	102.65	336	387.83	74.074	300.6	402.63	39.94	331.22	394.94	46.228	267.36	570.79	42.5	232.62	590.51	44.048	347.15	652.91	66.584	298.78	264.43	1507.7	336.53	229.16	1221.3	350.93
352	1.4625	469.07	1221.7	328.2	356.83	1455	504.29	316.79	1476.2	169.42	347.08	1775.3	348.74	452.14	998.6	442.62	458.85	1013.5	211.28	254.22	1030	365.33	259.24	1040	271.93	375.81	882.81	506.62	377.9	910.08	138.22	357.18	1065.5	489.84	361.01	1094.8	180.72	239.03	994.48	314.32	365.75	681.33	498.1	452.63	586.18	484.2	381.12	592.19	484.89	445.2	680.98	498.41	417.48	491.88	481.86	411.6	489.1	349.08	249.23	418.94	488.95	235.98	331.24	470.9	186.5	373.28	484.72	298.6	377.84	478.36	53.378	275.2	456.31	83.777	256.19	377.34	6.8059	300.31	405.29	-10.087	280.53	375.25	-16.22	284.78	437.47	NaN	NaN	NaN	73.103	115.97	363.16	114.98	65.952	409.37	409.04	693.3	163.07	511.18	627.26	196.06	444.32	612.54	186.67	481.19	706.73	166.74	481.66	519.65	211.35	471.33	523.66	335.75	427.9	337.78	210.46	493.3	252.03	240.75	423.57	265.57	227.52	491.11	326.68	222.73	439.54	97.431	247.79	461.92	102.63	336.24	387.88	74.127	300.7	402.65	39.939	331.26	394.98	46.336	267.4	570.85	42.466	232.64	590.62	43.682	347.19	653.06	66.152	298.83	269.25	1508.8	336.43	233.97	1222.3	350.69
353	1.4667	473.77	1222.8	327.91	361.6	1456	504.17	321.6	1477.4	169.37	352.38	1776.3	348.75	457.21	999.96	442.17	463.48	1014.4	210.84	259.13	1030.9	365.26	264.05	1040.8	271.88	381.55	884.1	506.49	382.26	910.81	138.1	362.26	1066.7	489.61	365.62	1095.7	180.42	243.89	995.42	314.3	374.22	682.43	498.1	462.13	588.33	484.17	390.53	593.42	484.86	453.58	683.03	498.41	428.13	493.6	481.8	421.81	490.79	349	260.52	419.44	489.09	247.9	331.66	470.96	198.14	373.3	484.87	310.18	378.76	478.46	65.549	274.41	456.36	96.16	255.46	377.62	18.219	298.38	405.32	1.7131	278.04	375.43	-4.4455	282.66	437.59	NaN	NaN	NaN	87.905	114.98	364.5	130.73	66.162	411.05	411.98	693.95	162.98	513.55	627.1	196.15	446.6	612.89	186.58	484.23	706.85	166.74	483.12	519.66	211.38	472.49	523.67	335.71	428.69	337.91	210.6	493.82	251.97	240.91	424.14	265.71	227.68	491.86	326.63	222.86	439.72	97.553	247.97	462	102.61	336.47	387.93	74.177	300.81	402.66	39.94	331.3	395.02	46.44	267.45	570.91	42.433	232.65	590.73	43.332	347.21	653.21	65.741	298.88	274.07	1509.8	336.34	238.76	1223.4	350.46
354	1.4708	478.45	1223.9	327.61	366.36	1457	504.04	326.39	1478.6	169.33	357.66	1777.3	348.77	462.26	1001.3	441.74	468.1	1015.4	210.41	264.03	1031.9	365.18	268.85	1041.7	271.82	387.26	885.39	506.37	386.6	911.52	137.99	367.31	1067.9	489.37	370.24	1096.6	180.13	248.75	996.33	314.29	382.67	683.56	498.14	471.59	590.52	484.11	399.92	594.69	484.84	461.94	685.12	498.38	438.74	495.37	481.71	431.92	492.53	348.89	271.79	419.89	489.21	259.86	332.01	471.01	209.79	373.22	485.01	321.77	379.65	478.53	77.828	273.39	456.4	108.65	254.54	377.89	29.742	296.18	405.36	13.636	275.29	375.64	7.459	280.27	437.73	NaN	NaN	NaN	102.91	113.86	365.82	146.72	66.275	412.69	414.89	694.6	162.89	515.88	626.92	196.21	448.85	613.25	186.47	487.22	706.94	166.74	484.55	519.67	211.39	473.64	523.69	335.65	429.46	338.04	210.72	494.34	251.91	241.07	424.7	265.85	227.82	492.6	326.58	222.99	439.89	97.671	248.14	462.07	102.6	336.69	387.98	74.225	300.91	402.67	39.941	331.33	395.05	46.542	267.5	570.97	42.401	232.65	590.83	42.999	347.23	653.35	65.351	298.92	278.88	1510.8	336.25	243.54	1224.5	350.23
355	1.475	483.12	1225	327.31	371.13	1458	503.92	331.18	1479.7	169.28	362.93	1778.3	348.8	467.28	1002.6	441.32	472.71	1016.3	210	268.92	1032.9	365.11	273.64	1042.5	271.77	392.96	886.67	506.27	390.92	912.19	137.89	372.34	1069.1	489.13	374.85	1097.5	179.84	253.6	997.22	314.28	391.1	684.72	498.21	481.01	592.76	484.02	409.27	596	484.85	470.27	687.23	498.32	449.3	497.17	481.59	441.95	494.32	348.78	283.03	420.28	489.31	271.86	332.29	471.04	221.47	373.03	485.12	333.35	380.52	478.58	90.217	272.16	456.45	121.26	253.43	378.15	41.376	293.73	405.42	25.684	272.27	375.88	19.497	277.61	437.9	NaN	NaN	NaN	118.12	112.6	367.12	162.93	66.3	414.29	417.77	695.23	162.79	518.18	626.74	196.26	451.08	613.59	186.37	490.16	707.01	166.75	485.97	519.67	211.4	474.81	523.71	335.59	430.23	338.16	210.82	494.85	251.85	241.21	425.25	266	227.94	493.32	326.52	223.1	440.06	97.785	248.3	462.13	102.58	336.89	388.03	74.271	301.01	402.68	39.942	331.36	395.09	46.639	267.55	571.02	42.371	232.66	590.93	42.683	347.25	653.48	64.982	298.95	283.68	1511.8	336.16	248.3	1225.5	350.01
356	1.4792	487.78	1226	327	375.89	1458.9	503.79	335.96	1480.9	169.25	368.19	1779.3	348.82	472.28	1003.9	440.92	477.31	1017.2	209.6	273.79	1033.8	365.04	278.41	1043.3	271.71	398.63	887.94	506.18	395.23	912.83	137.8	377.35	1070.3	488.9	379.46	1098.3	179.54	258.44	998.08	314.26	399.51	685.9	498.33	490.4	595.03	483.89	418.6	597.36	484.88	478.57	689.36	498.23	459.8	499.01	481.43	451.88	496.16	348.64	294.24	420.6	489.39	283.89	332.5	471.05	233.15	372.73	485.23	344.92	381.37	478.59	102.72	270.71	456.5	133.96	252.15	378.4	53.123	291.02	405.49	37.861	269	376.15	31.671	274.68	438.11	NaN	NaN	NaN	133.51	111.22	368.39	179.36	66.247	415.84	420.64	695.86	162.69	520.44	626.55	196.28	453.29	613.93	186.26	493.06	707.05	166.76	487.36	519.68	211.4	475.99	523.73	335.52	430.98	338.29	210.89	495.35	251.8	241.35	425.79	266.14	228.05	494.03	326.47	223.19	440.22	97.894	248.46	462.19	102.57	337.08	388.08	74.315	301.1	402.68	39.946	331.39	395.13	46.733	267.59	571.07	42.342	232.67	591.02	42.384	347.25	653.6	64.634	298.98	288.48	1512.8	336.08	253.04	1226.5	349.79
357	1.4833	492.42	1227	326.7	380.65	1459.9	503.67	340.74	1482	169.21	373.44	1780.2	348.85	477.26	1005.1	440.53	481.9	1018	209.21	278.64	1034.7	364.97	283.17	1044	271.65	404.28	889.19	506.1	399.53	913.43	137.73	382.34	1071.4	488.67	384.06	1099.1	179.25	263.27	998.91	314.25	407.89	687.1	498.47	499.75	597.33	483.73	427.89	598.75	484.94	486.85	691.5	498.11	470.24	500.89	481.23	461.72	498.03	348.49	305.43	420.86	489.45	295.97	332.64	471.05	244.86	372.33	485.32	356.49	382.19	478.58	115.32	269.04	456.57	146.78	250.7	378.64	64.988	288.07	405.59	50.169	265.49	376.45	43.986	271.5	438.34	NaN	NaN	NaN	149.1	109.73	369.62	195.99	66.124	417.32	423.48	696.48	162.6	522.67	626.34	196.28	455.48	614.27	186.14	495.91	707.08	166.77	488.74	519.68	211.39	477.21	523.76	335.44	431.72	338.41	210.94	495.84	251.74	241.47	426.33	266.28	228.14	494.74	326.42	223.28	440.37	97.999	248.6	462.24	102.56	337.26	388.12	74.357	301.19	402.68	39.95	331.41	395.16	46.823	267.64	571.11	42.316	232.67	591.11	42.103	347.25	653.72	64.307	299	293.29	1513.7	336	257.78	1227.5	349.57
